<svg width="63" height="61" viewBox="0 0 63 61" fill="none" xmlns="http://www.w3.org/2000/svg">
    <path fill-rule="evenodd" clip-rule="evenodd" d="M28.9882 59.6087C30.1598 60.7803 32.0593 60.7803 33.2309 59.6087L49.366 43.4735C49.5222 43.3173 49.5222 43.0641 49.366 42.9079L45.3296 38.8714C45.1734 38.7152 44.9201 38.7152 44.7639 38.8714L32.0288 51.6065C31.5211 52.1142 30.698 52.1142 30.1903 51.6065L9.8207 31.2369C9.31302 30.7292 9.31302 29.9061 9.8207 29.3984L30.1903 9.02881C30.698 8.52113 31.5211 8.52113 32.0288 9.02881L44.8829 21.8829C44.9579 21.9579 45.0596 22 45.1657 22L53.2386 22C53.595 22 53.7734 21.5692 53.5214 21.3172L33.2309 1.02662C32.0593 -0.14495 30.1598 -0.14495 28.9882 1.02662L1.81853 28.1963C0.64696 29.3679 0.64696 31.2674 1.81853 32.439L28.9882 59.6087ZM60.1908 32C59.9513 32 59.8314 32.2895 60.0007 32.4588C60.1057 32.5637 60.2758 32.5637 60.3808 32.4588L60.4006 32.439C60.4087 32.4308 60.4168 32.4227 60.4249 32.4144C60.5842 32.2515 60.4557 32 60.2277 32L60.1908 32Z" fill="#6A54F5"/>
    <path fill-rule="evenodd" clip-rule="evenodd" d="M30.6853 35.0573C30.9196 35.2916 31.2995 35.2916 31.5338 35.0573L35.8492 30.7419C36.0835 30.5076 36.0835 30.1277 35.8492 29.8934L31.5338 25.5779C31.2995 25.3436 30.9196 25.3436 30.6853 25.5779L26.3698 29.8934C26.1355 30.1277 26.1355 30.5076 26.3698 30.7419L30.6853 35.0573ZM30.261 43.7695C30.7296 44.2382 31.4894 44.2382 31.958 43.7695L43.4563 32.2713C43.6906 32.037 44.0705 32.037 44.3048 32.2713L47.7021 35.6686C47.9364 35.9029 48.3163 35.9029 48.5507 35.6686L51.9523 32.267C52.1866 32.0326 52.5665 32.0326 52.8008 32.267L56.2024 35.6686C56.4367 35.9029 56.8166 35.9029 57.051 35.6686L62.0362 30.6833C62.2706 30.449 62.2706 30.0691 62.0362 29.8348L59.3948 27.1933C59.2823 27.0808 59.1297 27.0176 58.9705 27.0176L43.21 27.0176C43.2099 27.0176 43.2099 27.0176 43.2099 27.0176C43.2099 27.0175 43.2099 27.0175 43.2099 27.0175L42.3584 27.0175C42.1993 27.0175 42.0467 26.9543 41.9341 26.8418L31.958 16.8657C31.4894 16.3971 30.7296 16.3971 30.261 16.8657L17.6576 29.4691C17.189 29.9377 17.189 30.6975 17.6576 31.1661L30.261 43.7695Z" fill="#6A54F5"/>
</svg>