<svg width="194" height="26" viewBox="0 0 194 26" fill="none" xmlns="http://www.w3.org/2000/svg">
<path d="M20 25L20 26L20 25ZM8.70711 0.292893C8.31658 -0.0976311 7.68342 -0.097631 7.29289 0.292893L0.928934 6.65686C0.53841 7.04738 0.53841 7.68054 0.928934 8.07107C1.31946 8.46159 1.95262 8.46159 2.34315 8.07107L8 2.41421L13.6569 8.07107C14.0474 8.46159 14.6805 8.46159 15.0711 8.07107C15.4616 7.68054 15.4616 7.04738 15.0711 6.65685L8.70711 0.292893ZM194 24L20 24L20 26L194 26L194 24ZM9 13L9 1L7 1L7 13L9 13ZM20 24C13.9249 24 9 19.0751 9 13L7 13C7 20.1797 12.8203 26 20 26L20 24Z" fill="#BABABA"/>
</svg>
