<svg id="svg" version="1.1" xmlns="http://www.w3.org/2000/svg" xmlns:xlink="http://www.w3.org/1999/xlink" width="400" height="400" viewBox="0, 0, 400,400"><g id="svgg"><path id="path0" d="M55.859 31.851 C 50.773 32.400,48.972 34.724,48.605 41.209 C 48.347 45.790,48.520 215.958,48.786 218.851 C 49.022 221.411,50.625 223.938,52.567 224.810 C 52.820 224.924,53.217 225.127,53.448 225.261 C 53.755 225.439,54.311 225.465,55.499 225.355 C 56.395 225.273,69.302 225.293,84.180 225.400 C 99.058 225.507,129.028 225.589,150.781 225.583 C 172.534 225.576,191.299 225.574,192.480 225.578 L 194.629 225.586 194.563 231.006 C 194.453 240.037,194.930 355.456,195.108 362.840 L 195.273 369.723 195.815 370.648 C 196.624 372.027,199.065 374.368,199.847 374.513 C 200.200 374.579,209.761 374.649,221.094 374.670 L 241.699 374.707 242.697 374.256 C 243.947 373.690,244.911 372.699,245.678 371.191 L 246.274 370.020 246.492 350.879 C 246.639 337.991,246.656 322.488,246.544 303.418 C 246.452 287.842,246.401 275.061,246.431 275.016 C 246.552 274.834,247.539 275.938,248.077 276.855 C 248.887 278.236,250.196 280.280,250.844 281.174 C 251.348 281.868,253.762 285.518,255.804 288.672 C 256.701 290.056,259.648 294.370,260.218 295.131 C 260.413 295.392,261.118 296.440,261.784 297.461 C 262.451 298.481,263.179 299.580,263.403 299.902 C 263.626 300.225,264.364 301.323,265.042 302.344 C 266.351 304.313,266.651 304.762,268.474 307.490 C 269.109 308.441,270.200 310.080,270.898 311.133 C 271.597 312.186,272.688 313.825,273.323 314.776 C 275.146 317.503,275.445 317.952,276.754 319.922 C 277.433 320.942,278.151 322.017,278.351 322.310 C 278.552 322.602,281.907 327.612,285.807 333.442 C 292.410 343.314,295.603 348.053,299.502 353.770 C 300.367 355.037,301.294 356.418,301.563 356.837 C 302.005 357.529,303.700 360.006,306.341 363.824 C 306.882 364.605,307.457 365.484,307.620 365.777 C 307.782 366.069,308.266 366.767,308.694 367.326 C 309.122 367.886,309.824 368.835,310.254 369.436 C 311.104 370.624,314.275 373.419,315.527 374.083 C 316.474 374.586,327.358 374.851,343.262 374.760 L 352.441 374.707 353.320 374.249 C 354.353 373.710,355.163 372.890,356.189 371.344 L 356.934 370.223 357.084 354.106 C 357.167 345.241,357.211 303.843,357.182 262.109 L 357.129 186.230 356.408 184.961 C 355.207 182.848,353.518 181.475,351.551 181.012 C 349.961 180.638,313.088 180.649,311.452 181.024 C 309.067 181.571,306.615 184.114,305.931 186.750 C 305.655 187.814,305.503 278.925,305.775 280.225 C 305.882 280.735,305.846 280.859,305.591 280.859 C 305.301 280.859,305.018 280.469,303.683 278.232 C 303.430 277.808,300.813 273.853,297.867 269.443 C 294.921 265.034,285.674 251.187,277.318 238.672 C 268.962 226.157,261.667 215.259,261.108 214.453 C 260.549 213.647,259.293 211.812,258.317 210.374 C 257.341 208.935,256.417 207.573,256.263 207.346 C 255.940 206.871,254.194 204.250,252.409 201.563 C 251.731 200.542,250.905 199.312,250.574 198.828 C 249.728 197.592,247.207 193.776,246.973 193.375 C 246.865 193.192,246.459 192.564,246.069 191.980 C 245.680 191.396,244.757 189.998,244.019 188.873 C 242.370 186.362,239.301 183.107,237.853 182.333 C 237.283 182.028,236.677 181.659,236.507 181.513 C 235.406 180.569,236.417 180.583,167.285 180.574 C 131.836 180.570,102.261 180.605,101.563 180.651 L 100.293 180.736 100.243 165.612 L 100.193 150.488 131.395 150.488 C 186.780 150.488,181.776 150.699,184.170 148.271 C 186.515 145.893,186.330 147.622,186.329 128.111 C 186.328 108.550,186.545 110.447,184.028 107.978 C 181.410 105.409,186.211 105.660,139.733 105.663 L 100.195 105.666 100.195 90.968 L 100.195 76.270 143.506 76.270 C 191.038 76.270,187.666 76.361,189.441 75.027 C 192.597 72.656,192.532 73.102,192.475 54.199 C 192.426 37.946,192.388 36.988,191.769 36.103 C 191.569 35.818,191.406 35.491,191.406 35.377 C 191.406 35.263,190.801 34.564,190.061 33.825 C 188.433 32.196,188.043 32.070,183.887 31.826 C 180.225 31.610,57.863 31.634,55.859 31.851 " stroke="none" fill="#fbfbfb" fill-rule="evenodd"></path><path id="path1" d="M0.000 200.000 L 0.000 400.000 200.000 400.000 L 400.000 400.000 400.000 200.000 L 400.000 0.000 200.000 0.000 L 0.000 0.000 0.000 200.000 M185.840 31.838 C 188.610 32.157,190.576 33.393,191.495 35.394 C 191.657 35.747,191.868 36.167,191.965 36.328 C 192.524 37.257,192.578 38.851,192.578 54.460 C 192.578 73.201,192.690 72.345,189.930 74.774 C 187.865 76.592,187.155 76.614,135.498 76.525 L 100.195 76.463 100.195 91.015 L 100.195 105.566 139.404 105.507 C 175.733 105.453,178.750 105.473,180.469 105.783 L 182.324 106.118 184.034 107.795 C 186.816 110.525,186.586 108.563,186.455 128.418 C 186.363 142.383,186.297 145.347,186.062 145.996 C 185.656 147.118,183.580 149.298,182.357 149.887 L 181.348 150.373 160.352 150.599 C 140.961 150.808,102.990 150.722,101.074 150.466 L 100.293 150.361 100.308 165.171 C 100.327 182.799,100.218 180.741,101.123 180.568 C 101.526 180.491,130.947 180.438,166.504 180.451 C 236.088 180.476,235.177 180.463,236.533 181.433 C 236.807 181.629,237.484 182.019,238.038 182.300 C 238.591 182.580,239.466 183.263,239.981 183.816 C 240.496 184.370,241.182 185.097,241.504 185.433 C 242.378 186.342,243.503 187.748,243.791 188.290 C 244.210 189.079,251.625 200.260,257.516 208.984 C 260.508 213.415,261.072 214.238,262.638 216.455 C 263.302 217.395,265.898 221.284,273.037 232.031 C 274.500 234.233,275.882 236.299,276.109 236.621 C 276.335 236.943,277.742 239.053,279.234 241.309 C 280.726 243.564,282.132 245.674,282.358 245.996 C 282.584 246.318,284.873 249.746,287.445 253.613 C 290.017 257.480,294.531 264.248,297.477 268.652 C 300.423 273.057,303.350 277.516,303.980 278.561 C 304.611 279.606,305.226 280.544,305.347 280.644 C 305.509 280.779,305.551 268.929,305.508 235.091 C 305.469 204.634,305.516 188.851,305.650 187.845 C 306.118 184.314,308.748 181.364,311.857 180.882 C 313.802 180.580,349.571 180.578,351.303 180.880 C 353.890 181.330,356.276 183.570,357.149 186.366 C 357.331 186.948,357.399 309.099,357.249 366.324 L 357.241 369.660 356.639 370.804 C 355.911 372.188,354.702 373.558,353.627 374.219 L 352.832 374.707 334.668 374.707 L 316.504 374.707 315.625 374.267 C 313.878 373.392,311.075 370.821,309.641 368.778 C 309.140 368.065,308.529 367.261,308.284 366.992 C 308.038 366.724,307.743 366.284,307.627 366.016 C 307.511 365.747,306.888 364.780,306.243 363.867 C 305.597 362.954,304.120 360.801,302.960 359.082 C 301.800 357.363,300.069 354.814,299.115 353.418 C 298.160 352.021,296.832 350.044,296.163 349.023 C 295.494 348.003,294.779 346.948,294.575 346.680 C 294.130 346.094,285.395 333.104,283.674 330.469 C 283.008 329.448,282.186 328.218,281.847 327.734 C 281.216 326.834,279.548 324.335,276.953 320.403 C 275.448 318.123,270.042 310.000,269.527 309.246 C 269.368 309.014,267.152 305.718,264.603 301.922 C 262.053 298.126,259.302 294.053,258.488 292.871 C 257.674 291.689,256.402 289.800,255.662 288.672 C 254.922 287.544,254.045 286.226,253.714 285.742 C 252.309 283.695,250.198 280.463,248.900 278.372 C 248.134 277.138,247.267 275.897,246.974 275.613 L 246.441 275.098 246.586 276.563 C 246.755 278.289,246.691 352.703,246.511 363.086 L 246.387 370.215 245.824 371.289 C 245.514 371.880,244.842 372.760,244.329 373.246 C 242.555 374.926,244.233 374.818,220.602 374.759 C 196.857 374.700,199.468 374.906,197.532 372.934 C 195.462 370.825,195.352 370.561,195.133 367.162 C 194.837 362.570,194.434 291.269,194.434 243.535 L 194.434 225.644 159.863 225.664 C 140.850 225.675,109.093 225.616,89.293 225.534 L 53.293 225.385 52.275 224.734 C 49.261 222.806,48.825 221.716,48.591 215.527 C 48.294 207.682,48.299 41.485,48.596 38.895 C 49.017 35.222,50.864 32.964,54.260 31.969 C 55.913 31.484,181.684 31.359,185.840 31.838 " stroke="none" fill="#131b4c" fill-rule="evenodd"></path><path id="path2" d="M104.443 31.591 C 105.652 31.625,107.629 31.625,108.838 31.591 C 110.046 31.557,109.058 31.529,106.641 31.529 C 104.224 31.529,103.235 31.557,104.443 31.591 M142.432 31.591 C 143.372 31.627,144.910 31.627,145.850 31.591 C 146.790 31.555,146.021 31.526,144.141 31.526 C 142.261 31.526,141.492 31.555,142.432 31.591 M192.436 66.797 C 192.436 67.280,192.474 67.478,192.521 67.236 C 192.567 66.995,192.567 66.599,192.521 66.357 C 192.474 66.116,192.436 66.313,192.436 66.797 M184.424 76.307 C 184.612 76.356,184.919 76.356,185.107 76.307 C 185.295 76.257,185.142 76.217,184.766 76.217 C 184.390 76.217,184.236 76.257,184.424 76.307 M113.721 76.507 C 114.016 76.552,114.500 76.552,114.795 76.507 C 115.090 76.462,114.849 76.426,114.258 76.426 C 113.667 76.426,113.425 76.462,113.721 76.507 M171.341 76.507 C 171.637 76.552,172.077 76.551,172.317 76.505 C 172.557 76.458,172.314 76.422,171.777 76.423 C 171.240 76.425,171.044 76.462,171.341 76.507 M103.567 105.609 C 103.864 105.654,104.303 105.653,104.544 105.606 C 104.784 105.560,104.541 105.523,104.004 105.525 C 103.467 105.526,103.270 105.564,103.567 105.609 M115.387 105.613 C 115.955 105.653,116.834 105.652,117.341 105.612 C 117.847 105.572,117.383 105.540,116.309 105.540 C 115.234 105.541,114.820 105.573,115.387 105.613 M48.330 118.262 C 48.330 122.021,48.356 123.532,48.388 121.618 C 48.420 119.705,48.420 116.628,48.388 114.782 C 48.356 112.936,48.330 114.502,48.330 118.262 M186.389 122.559 C 186.390 123.203,186.426 123.443,186.470 123.092 C 186.513 122.741,186.512 122.214,186.468 121.920 C 186.423 121.627,186.388 121.914,186.389 122.559 M167.236 150.525 C 167.424 150.574,167.732 150.574,167.920 150.525 C 168.108 150.476,167.954 150.436,167.578 150.436 C 167.202 150.436,167.048 150.476,167.236 150.525 M129.163 150.732 C 130.861 150.765,133.586 150.765,135.217 150.732 C 136.849 150.699,135.459 150.673,132.129 150.673 C 128.799 150.673,127.464 150.700,129.163 150.732 M100.268 161.816 C 100.269 162.998,100.301 163.456,100.340 162.835 C 100.379 162.213,100.378 161.246,100.339 160.686 C 100.300 160.126,100.268 160.635,100.268 161.816 M48.508 206.836 C 48.508 207.856,48.541 208.274,48.581 207.764 C 48.621 207.253,48.621 206.418,48.581 205.908 C 48.541 205.398,48.508 205.815,48.508 206.836 M59.415 225.340 C 60.136 225.377,61.366 225.378,62.150 225.341 C 62.933 225.303,62.344 225.273,60.840 225.272 C 59.336 225.272,58.695 225.302,59.415 225.340 M88.135 225.533 C 88.538 225.575,89.197 225.575,89.600 225.533 C 90.002 225.491,89.673 225.456,88.867 225.456 C 88.062 225.456,87.732 225.491,88.135 225.533 M137.646 225.730 C 138.210 225.769,139.133 225.769,139.697 225.730 C 140.261 225.690,139.800 225.658,138.672 225.658 C 137.544 225.658,137.083 225.690,137.646 225.730 M174.170 225.727 C 174.519 225.771,175.090 225.771,175.439 225.727 C 175.789 225.684,175.503 225.648,174.805 225.648 C 174.106 225.648,173.821 225.684,174.170 225.727 M357.311 232.031 C 357.311 234.556,357.338 235.588,357.372 234.326 C 357.406 233.064,357.406 230.999,357.372 229.736 C 357.338 228.474,357.311 229.507,357.311 232.031 M194.406 232.422 C 194.406 233.442,194.439 233.860,194.479 233.350 C 194.520 232.839,194.520 232.004,194.479 231.494 C 194.439 230.984,194.406 231.401,194.406 232.422 M194.398 256.641 C 194.398 257.339,194.434 257.625,194.477 257.275 C 194.521 256.926,194.521 256.355,194.477 256.006 C 194.434 255.657,194.398 255.942,194.398 256.641 M357.291 277.441 C 357.292 278.193,357.327 278.477,357.369 278.072 C 357.411 277.667,357.411 277.051,357.368 276.705 C 357.324 276.358,357.290 276.689,357.291 277.441 M194.609 283.984 C 194.609 285.542,194.639 286.179,194.676 285.400 C 194.713 284.622,194.713 283.347,194.676 282.568 C 194.639 281.790,194.609 282.427,194.609 283.984 M357.302 310.156 C 357.302 311.499,357.333 312.048,357.371 311.377 C 357.409 310.706,357.409 309.607,357.371 308.936 C 357.333 308.264,357.302 308.813,357.302 310.156 M194.785 343.164 C 194.785 343.755,194.822 343.997,194.866 343.701 C 194.911 343.406,194.911 342.922,194.866 342.627 C 194.822 342.332,194.785 342.573,194.785 343.164 M246.540 354.199 C 246.542 354.736,246.580 354.933,246.625 354.636 C 246.669 354.339,246.668 353.900,246.622 353.659 C 246.576 353.419,246.539 353.662,246.540 354.199 M357.087 354.395 C 357.089 354.932,357.127 355.128,357.171 354.831 C 357.216 354.534,357.215 354.095,357.169 353.855 C 357.122 353.615,357.086 353.857,357.087 354.395 M246.334 367.773 C 246.334 368.149,246.375 368.303,246.424 368.115 C 246.473 367.927,246.473 367.620,246.424 367.432 C 246.375 367.244,246.334 367.397,246.334 367.773 " stroke="none" fill="#6f717f" fill-rule="evenodd"></path><path id="path3" d="M118.423 31.592 C 122.593 31.621,129.361 31.621,133.462 31.592 C 137.563 31.562,134.150 31.538,125.879 31.538 C 117.607 31.538,114.252 31.562,118.423 31.592 M56.299 31.775 C 56.487 31.824,56.794 31.824,56.982 31.775 C 57.170 31.726,57.017 31.686,56.641 31.686 C 56.265 31.686,56.111 31.726,56.299 31.775 M182.471 31.781 C 182.766 31.825,183.250 31.825,183.545 31.781 C 183.840 31.736,183.599 31.699,183.008 31.699 C 182.417 31.699,182.175 31.736,182.471 31.781 M48.496 41.602 C 48.496 42.192,48.533 42.434,48.577 42.139 C 48.622 41.843,48.622 41.360,48.577 41.064 C 48.533 40.769,48.496 41.011,48.496 41.602 M192.457 43.359 C 192.457 44.595,192.488 45.100,192.527 44.482 C 192.566 43.865,192.566 42.854,192.527 42.236 C 192.488 41.619,192.457 42.124,192.457 43.359 M192.457 63.477 C 192.457 64.712,192.488 65.217,192.527 64.600 C 192.566 63.982,192.566 62.971,192.527 62.354 C 192.488 61.736,192.457 62.241,192.457 63.477 M100.830 76.314 C 101.233 76.356,101.892 76.356,102.295 76.314 C 102.698 76.272,102.368 76.238,101.563 76.238 C 100.757 76.238,100.427 76.272,100.830 76.314 M181.787 76.315 C 182.244 76.356,182.991 76.356,183.447 76.315 C 183.904 76.274,183.530 76.240,182.617 76.240 C 181.704 76.240,181.331 76.274,181.787 76.315 M129.166 76.514 C 136.882 76.542,149.450 76.542,157.095 76.514 C 164.741 76.485,158.428 76.462,143.066 76.462 C 127.705 76.462,121.450 76.485,129.166 76.514 M132.178 105.615 C 139.939 105.643,152.639 105.643,160.400 105.615 C 168.162 105.587,161.812 105.564,146.289 105.564 C 130.767 105.564,124.417 105.587,132.178 105.615 M175.537 105.613 C 176.101 105.652,177.024 105.652,177.588 105.613 C 178.152 105.573,177.690 105.541,176.563 105.541 C 175.435 105.541,174.973 105.573,175.537 105.613 M183.008 106.934 C 183.372 107.310,183.714 107.617,183.768 107.617 C 183.822 107.617,183.568 107.310,183.203 106.934 C 182.839 106.558,182.497 106.250,182.443 106.250 C 182.389 106.250,182.643 106.558,183.008 106.934 M183.984 107.874 C 183.984 107.907,184.270 108.193,184.619 108.508 L 185.254 109.082 184.680 108.447 C 184.146 107.856,183.984 107.723,183.984 107.874 M102.100 150.528 C 102.341 150.575,102.737 150.575,102.979 150.528 C 103.220 150.482,103.022 150.444,102.539 150.444 C 102.056 150.444,101.858 150.482,102.100 150.528 M163.631 150.535 C 164.306 150.574,165.361 150.573,165.974 150.535 C 166.588 150.496,166.035 150.465,164.746 150.465 C 163.457 150.466,162.955 150.497,163.631 150.535 M102.002 180.603 C 102.190 180.653,102.498 180.653,102.686 180.603 C 102.874 180.554,102.720 180.514,102.344 180.514 C 101.968 180.514,101.814 180.554,102.002 180.603 M218.320 180.614 C 219.211 180.650,220.617 180.650,221.445 180.614 C 222.272 180.577,221.543 180.548,219.824 180.548 C 218.105 180.548,217.428 180.578,218.320 180.614 M226.904 180.614 C 227.683 180.651,228.958 180.651,229.736 180.614 C 230.515 180.577,229.878 180.546,228.320 180.546 C 226.763 180.546,226.125 180.577,226.904 180.614 M357.119 194.824 C 357.119 198.691,357.145 200.301,357.177 198.401 C 357.209 196.502,357.209 193.338,357.178 191.370 C 357.146 189.403,357.119 190.957,357.119 194.824 M305.564 228.027 C 305.564 249.082,305.587 257.666,305.615 247.104 C 305.643 236.541,305.643 219.314,305.615 208.822 C 305.587 198.330,305.564 206.973,305.564 228.027 M48.519 201.465 C 48.519 203.506,48.548 204.314,48.583 203.261 C 48.618 202.208,48.618 200.538,48.583 199.550 C 48.548 198.562,48.519 199.424,48.519 201.465 M48.682 218.066 C 48.684 218.496,48.724 218.649,48.771 218.406 C 48.818 218.163,48.816 217.811,48.767 217.625 C 48.718 217.438,48.680 217.637,48.682 218.066 M56.887 225.335 C 57.184 225.380,57.624 225.379,57.864 225.333 C 58.104 225.286,57.861 225.250,57.324 225.251 C 56.787 225.253,56.591 225.291,56.887 225.335 M64.990 225.341 C 65.876 225.377,67.327 225.377,68.213 225.341 C 69.099 225.304,68.374 225.275,66.602 225.275 C 64.829 225.275,64.104 225.304,64.990 225.341 M92.638 225.537 C 94.014 225.570,96.211 225.570,97.521 225.536 C 98.831 225.503,97.705 225.475,95.020 225.475 C 92.334 225.475,91.262 225.503,92.638 225.537 M188.037 225.534 C 188.494 225.575,189.241 225.575,189.697 225.534 C 190.154 225.493,189.780 225.459,188.867 225.459 C 187.954 225.459,187.581 225.493,188.037 225.534 M148.892 225.732 C 153.492 225.762,160.963 225.762,165.493 225.732 C 170.024 225.703,166.260 225.679,157.129 225.679 C 147.998 225.679,144.291 225.703,148.892 225.732 M194.427 244.824 C 194.427 250.732,194.452 253.178,194.482 250.258 C 194.513 247.338,194.513 242.504,194.482 239.516 C 194.452 236.527,194.427 238.916,194.427 244.824 M357.320 255.762 C 357.320 266.182,357.344 270.416,357.373 265.171 C 357.402 259.926,357.402 251.400,357.373 246.225 C 357.344 241.050,357.320 245.342,357.320 255.762 M305.539 272.852 C 305.539 273.872,305.572 274.290,305.612 273.779 C 305.653 273.269,305.653 272.434,305.612 271.924 C 305.572 271.414,305.539 271.831,305.539 272.852 M194.616 276.465 C 194.616 279.150,194.643 280.276,194.677 278.966 C 194.711 277.657,194.711 275.460,194.677 274.084 C 194.644 272.708,194.616 273.779,194.616 276.465 M246.306 275.049 C 246.352 275.076,246.696 275.361,247.071 275.684 L 247.754 276.270 247.180 275.635 C 246.865 275.286,246.521 275.000,246.415 275.000 C 246.310 275.000,246.261 275.022,246.306 275.049 M246.578 296.191 C 246.578 305.967,246.602 309.937,246.631 305.015 C 246.660 300.092,246.660 292.094,246.631 287.241 C 246.602 282.388,246.578 286.416,246.578 296.191 M357.319 295.410 C 357.319 302.285,357.343 305.069,357.373 301.597 C 357.403 298.125,357.403 292.500,357.373 289.097 C 357.343 285.694,357.319 288.535,357.319 295.410 M194.812 336.816 C 194.813 339.824,194.840 341.027,194.873 339.490 C 194.906 337.953,194.906 335.492,194.872 334.021 C 194.839 332.551,194.812 333.809,194.812 336.816 M246.568 348.926 C 246.568 351.396,246.596 352.380,246.630 351.112 C 246.664 349.844,246.664 347.822,246.630 346.620 C 246.596 345.417,246.568 346.455,246.568 348.926 M357.111 350.391 C 357.111 352.163,357.140 352.888,357.177 352.002 C 357.213 351.116,357.213 349.666,357.177 348.779 C 357.140 347.893,357.111 348.618,357.111 350.391 M194.996 360.352 C 194.996 361.587,195.027 362.092,195.066 361.475 C 195.105 360.857,195.105 359.846,195.066 359.229 C 195.027 358.611,194.996 359.116,194.996 360.352 M246.370 363.574 C 246.371 365.615,246.400 366.424,246.435 365.371 C 246.470 364.318,246.470 362.648,246.434 361.660 C 246.399 360.672,246.370 361.533,246.370 363.574 M205.322 374.756 C 207.122 374.788,210.066 374.788,211.865 374.756 C 213.665 374.723,212.192 374.697,208.594 374.697 C 204.995 374.697,203.523 374.723,205.322 374.756 M320.654 374.755 C 322.185 374.788,324.690 374.788,326.221 374.755 C 327.751 374.722,326.499 374.695,323.438 374.695 C 320.376 374.695,319.124 374.722,320.654 374.755 " stroke="none" fill="#838c8d" fill-rule="evenodd"></path><path id="path4" d="M90.661 31.592 C 92.775 31.623,96.291 31.623,98.473 31.592 C 100.656 31.560,98.926 31.534,94.629 31.534 C 90.332 31.534,88.546 31.560,90.661 31.592 M149.463 31.591 C 150.618 31.626,152.507 31.626,153.662 31.591 C 154.817 31.557,153.872 31.528,151.563 31.528 C 149.253 31.528,148.308 31.557,149.463 31.591 M48.336 93.750 C 48.336 103.579,48.360 107.600,48.389 102.686 C 48.418 97.771,48.418 89.729,48.389 84.814 C 48.360 79.900,48.336 83.921,48.336 93.750 M185.596 76.307 C 185.784 76.356,186.091 76.356,186.279 76.307 C 186.467 76.257,186.313 76.217,185.938 76.217 C 185.562 76.217,185.408 76.257,185.596 76.307 M110.889 76.510 C 111.345 76.551,112.092 76.551,112.549 76.510 C 113.005 76.469,112.632 76.435,111.719 76.435 C 110.806 76.435,110.432 76.469,110.889 76.510 M173.394 76.510 C 173.853 76.552,174.556 76.551,174.956 76.509 C 175.356 76.467,174.980 76.433,174.121 76.434 C 173.262 76.435,172.934 76.469,173.394 76.510 M102.102 105.607 C 102.345 105.654,102.696 105.652,102.883 105.603 C 103.070 105.554,102.871 105.516,102.441 105.518 C 102.012 105.520,101.859 105.560,102.102 105.607 M107.189 105.615 C 108.511 105.649,110.620 105.648,111.876 105.615 C 113.132 105.581,112.051 105.553,109.473 105.553 C 106.895 105.553,105.867 105.581,107.189 105.615 M186.411 116.895 C 186.412 119.258,186.440 120.198,186.474 118.983 C 186.508 117.769,186.508 115.835,186.474 114.686 C 186.439 113.538,186.411 114.531,186.411 116.895 M186.415 129.688 C 186.415 132.856,186.441 134.153,186.474 132.568 C 186.507 130.984,186.507 128.391,186.474 126.807 C 186.441 125.222,186.415 126.519,186.415 129.688 M48.336 144.727 C 48.336 155.630,48.360 160.090,48.389 154.639 C 48.417 149.187,48.417 140.266,48.389 134.814 C 48.360 129.363,48.336 133.823,48.336 144.727 M168.701 150.532 C 169.050 150.575,169.622 150.575,169.971 150.532 C 170.320 150.489,170.034 150.453,169.336 150.453 C 168.638 150.453,168.352 150.489,168.701 150.532 M120.850 150.731 C 121.843 150.767,123.469 150.767,124.463 150.731 C 125.457 150.696,124.644 150.667,122.656 150.667 C 120.669 150.667,119.856 150.696,120.850 150.731 M141.455 150.732 C 143.147 150.765,145.916 150.765,147.607 150.732 C 149.299 150.700,147.915 150.673,144.531 150.673 C 141.147 150.673,139.763 150.700,141.455 150.732 M100.273 157.031 C 100.273 158.589,100.303 159.226,100.340 158.447 C 100.377 157.668,100.377 156.394,100.340 155.615 C 100.303 154.836,100.273 155.474,100.273 157.031 M100.277 167.578 C 100.277 169.673,100.306 170.530,100.341 169.482 C 100.376 168.435,100.376 166.721,100.341 165.674 C 100.306 164.626,100.277 165.483,100.277 167.578 M119.006 180.419 C 120.381 180.453,122.579 180.453,123.888 180.419 C 125.198 180.386,124.072 180.358,121.387 180.358 C 118.701 180.358,117.630 180.386,119.006 180.419 M48.510 210.938 C 48.510 212.065,48.542 212.527,48.581 211.963 C 48.621 211.399,48.621 210.476,48.581 209.912 C 48.542 209.348,48.510 209.810,48.510 210.938 M357.314 220.508 C 357.314 223.999,357.340 225.427,357.373 223.682 C 357.405 221.936,357.405 219.080,357.373 217.334 C 357.340 215.588,357.314 217.017,357.314 220.508 M83.643 225.535 C 84.368 225.573,85.554 225.573,86.279 225.535 C 87.004 225.498,86.411 225.467,84.961 225.467 C 83.511 225.467,82.917 225.498,83.643 225.535 M128.467 225.732 C 129.998 225.765,132.502 225.765,134.033 225.732 C 135.564 225.699,134.312 225.672,131.250 225.672 C 128.188 225.672,126.936 225.699,128.467 225.732 M176.807 225.729 C 177.317 225.770,178.152 225.770,178.662 225.729 C 179.172 225.689,178.755 225.656,177.734 225.656 C 176.714 225.656,176.296 225.689,176.807 225.729 M194.398 229.492 C 194.398 230.190,194.434 230.476,194.477 230.127 C 194.521 229.778,194.521 229.207,194.477 228.857 C 194.434 228.508,194.398 228.794,194.398 229.492 M194.406 259.570 C 194.406 260.591,194.439 261.008,194.479 260.498 C 194.520 259.988,194.520 259.153,194.479 258.643 C 194.439 258.132,194.406 258.550,194.406 259.570 M305.531 276.563 C 305.531 277.261,305.567 277.546,305.610 277.197 C 305.653 276.848,305.653 276.277,305.610 275.928 C 305.567 275.579,305.531 275.864,305.531 276.563 M246.763 288.965 C 246.763 291.328,246.791 292.268,246.826 291.054 C 246.860 289.839,246.860 287.906,246.825 286.757 C 246.791 285.608,246.763 286.602,246.763 288.965 M194.619 293.359 C 194.619 296.851,194.645 298.279,194.677 296.533 C 194.710 294.788,194.710 291.931,194.677 290.186 C 194.645 288.440,194.619 289.868,194.619 293.359 M357.312 318.164 C 357.312 321.118,357.339 322.327,357.373 320.850 C 357.406 319.373,357.406 316.956,357.373 315.479 C 357.339 314.001,357.312 315.210,357.312 318.164 M194.806 347.168 C 194.806 348.887,194.836 349.564,194.872 348.672 C 194.908 347.781,194.908 346.375,194.872 345.547 C 194.835 344.720,194.805 345.449,194.806 347.168 M246.554 356.738 C 246.553 357.705,246.586 358.125,246.627 357.672 C 246.668 357.219,246.669 356.428,246.628 355.914 C 246.588 355.401,246.554 355.771,246.554 356.738 M357.114 359.180 C 357.114 361.382,357.142 362.283,357.177 361.182 C 357.212 360.081,357.212 358.279,357.177 357.178 C 357.142 356.077,357.114 356.978,357.114 359.180 M194.984 364.453 C 194.984 365.151,195.020 365.437,195.063 365.088 C 195.106 364.739,195.106 364.167,195.063 363.818 C 195.020 363.469,194.984 363.755,194.984 364.453 M357.108 365.820 C 357.108 367.271,357.139 367.864,357.176 367.139 C 357.214 366.414,357.214 365.227,357.176 364.502 C 357.139 363.777,357.108 364.370,357.108 365.820 " stroke="none" fill="#5a5c67" fill-rule="evenodd"></path></g></svg>