<svg xmlns="http://www.w3.org/2000/svg" version="1.0" width="400.000000" height="400.000000" preserveAspectRatio="xMidYMid meet" style=""><rect id="backgroundrect" width="100%" height="100%" x="0" y="0" fill="none" stroke="none"/>


<g class="currentLayer" style=""><title>Layer 1</title><g transform="translate(0,400) scale(0.10000000149011612,-0.10000000149011612) " fill="#14224d" stroke="none" id="svg_1" class="" fill-opacity="1">
<path d="M208.15970063800341,3943.1000807192177 c-31.4305419921875,-9.822044372558594 -62.861083984375,-30.44833755493164 -94.2916259765625,-61.87887954711914 c-85.45178604125977,-85.45178604125977 -78.57635498046875,74.64753723144531 -78.57635498046875,-1886.8147239685059 c0,-1961.4622611999512 -6.875431060791016,-1801.362937927246 78.57635498046875,-1885.83251953125 c84.4695816040039,-85.45178604125977 -75.62974166870117,-78.57635498046875 1885.83251953125,-78.57635498046875 c1961.4622611999512,0 1801.362937927246,-6.875431060791016 1885.83251953125,78.57635498046875 c85.45178604125977,84.4695816040039 78.57635498046875,-75.62974166870117 78.57635498046875,1885.83251953125 c0,1961.4622611999512 6.875431060791016,1801.362937927246 -78.57635498046875,1885.83251953125 c-84.4695816040039,85.45178604125977 75.62974166870117,78.57635498046875 -1889.7613372802734,77.59415054321289 c-1513.5770378112793,0 -1745.377285003662,-1.9644088745117188 -1787.612075805664,-14.73306655883789 zm1690.373836517334,-314.305419921875 c28.483928680419922,-17.67967987060547 36.3415641784668,-85.45178604125977 30.44833755493164,-251.4443359375 c-3.9288177490234375,-108.04248809814453 -7.857635498046875,-129.65098571777344 -23.572906494140625,-145.3662567138672 c-17.67967987060547,-16.69747543334961 -48.12801742553711,-18.661884307861328 -452.7962455749512,-25.537315368652344 l-435.1165657043457,-6.875431060791016 l0,-135.5442123413086 l0,-134.56200790405273 l402.70381927490234,-3.9288177490234375 l401.7216148376465,-2.946613311767578 l22.590702056884766,-22.590702056884766 c21.608497619628906,-21.608497619628906 22.590702056884766,-26.519519805908203 20.626293182373047,-200.3697052001953 c-1.9644088745117188,-164.02814102172852 -2.946613311767578,-179.74341201782227 -21.608497619628906,-197.42309188842773 c-18.661884307861328,-19.644088745117188 -32.41274642944336,-19.644088745117188 -422.34790802001953,-20.626293182373047 l-403.6860237121582,-0.9822044372558595 l0,-113.93571472167969 c0,-62.861083984375 2.946613311767578,-128.66878128051758 5.893226623535156,-145.3662567138672 l6.875431060791016,-30.44833755493164 l600.1269111633301,0 c330.02069091796875,0 630.5752487182617,-2.946613311767578 667.8990173339844,-6.875431060791016 c57.9500617980957,-4.911022186279297 71.70092391967773,-9.822044372558594 98.22044372558594,-37.323768615722656 c16.69747543334961,-16.69747543334961 165.01034545898438,-232.78245162963867 330.02069091796875,-480.29796981811523 l299.5723533630371,-449.8496322631836 l7.857635498046875,459.6716766357422 c7.857635498046875,450.83183670043945 7.857635498046875,460.65388107299805 28.483928680419922,482.26237869262695 c20.626293182373047,22.590702056884766 25.537315368652344,22.590702056884766 228.85363388061523,22.590702056884766 c195.45868301391602,0 209.20954513549805,-0.9822044372558595 228.85363388061523,-19.644088745117188 l21.608497619628906,-20.626293182373047 l0,-912.4679222106934 c0,-900.681468963623 0,-913.4501266479492 -19.644088745117188,-933.0942153930664 c-18.661884307861328,-18.661884307861328 -32.41274642944336,-19.644088745117188 -199.38750076293945,-19.644088745117188 l-180.72561645507812,0 l-35.35935974121094,31.4305419921875 c-33.39495086669922,31.4305419921875 -98.22044372558594,124.73996353149414 -472.44033432006836,684.596492767334 l-172.86798095703125,260.28417587280273 l-0.9822044372558595,-309.3943977355957 c-0.9822044372558595,-168.9391632080078 0,-378.14870834350586 0.9822044372558595,-462.61828994750977 c1.9644088745117188,-154.20609664916992 1.9644088745117188,-154.20609664916992 -23.572906494140625,-179.74341201782227 l-25.537315368652344,-25.537315368652344 l-211.17395401000977,2.946613311767578 c-186.61884307861328,2.946613311767578 -212.15615844726562,4.911022186279297 -227.87142944335938,20.626293182373047 c-16.69747543334961,16.69747543334961 -17.67967987060547,63.84328842163086 -24.555110931396484,724.8668746948242 c-3.9288177490234375,389.9351615905762 -7.857635498046875,710.1338081359863 -10.804248809814453,712.098217010498 c-1.9644088745117188,1.9644088745117188 -313.32321548461914,3.9288177490234375 -691.471923828125,3.9288177490234375 l-687.5431060791016,0.9822044372558595 l-23.572906494140625,24.555110931396484 l-23.572906494140625,25.537315368652344 l-2.946613311767578,875.1441535949707 c-1.9644088745117188,482.26237869262695 0,889.8772201538086 2.946613311767578,906.5746955871582 c12.768657684326172,69.73651504516602 0.9822044372558595,66.78990173339844 326.0918731689453,72.6831283569336 c475.38694763183594,8.839839935302734 1035.2434768676758,0 1060.7807922363281,-15.71527099609375 z" id="svg_2" fill="#14224d" fill-opacity="1"/>
</g></g></svg>